<svg xmlns="http://www.w3.org/2000/svg" version="1.1" xmlns:xlink="http://www.w3.org/1999/xlink" xmlns:svgjs="http://svgjs.dev/svgjs" width="1440" height="560" preserveAspectRatio="none" viewBox="0 0 1440 560"><g clip-path="url(&quot;#SvgjsClipPath1051&quot;)" fill="none"><circle r="93.335" cx="54.16" cy="22.56" stroke="#0e3e9f" stroke-opacity="0.5" stroke-width="2"></circle><circle r="93.335" cx="351.58" cy="378.26" stroke="#0e3e9f" stroke-opacity="0.5" stroke-width="2"></circle><circle r="93.335" cx="666.1" cy="709.49" stroke="#0e3e9f" stroke-opacity="0.5" stroke-width="2"></circle><circle r="184.43" cx="730.35" cy="148.04" stroke="#0e3e9f" stroke-opacity="0.5" stroke-width="2"></circle><circle r="136.79" cx="1325.97" cy="177.27" stroke="#0e3e9f" stroke-opacity="0.5" stroke-width="2"></circle><circle r="52.74" cx="999.22" cy="149.47" stroke="#0e3e9f" stroke-opacity="0.5" stroke-width="2"></circle><circle r="180.095" cx="857.44" cy="528.09" stroke="#0e3e9f" stroke-opacity="0.5" stroke-width="2"></circle><circle r="72.765" cx="506.35" cy="426.58" stroke="#0e3e9f" stroke-opacity="0.5" stroke-width="2"></circle><circle r="89.11" cx="1326.49" cy="340.18" stroke="#0e3e9f" stroke-opacity="0.5" stroke-width="2"></circle><circle r="76.895" cx="142.54" cy="239.84" stroke="#0e3e9f" stroke-opacity="0.5" stroke-width="2"></circle><circle r="88.475" cx="1176.24" cy="127.05" stroke="#0e3e9f" stroke-opacity="0.5" stroke-width="2"></circle><circle r="86.33" cx="502.53" cy="14.59" stroke="#0e3e9f" stroke-opacity="0.5" stroke-width="2"></circle><circle r="89.06" cx="69.9" cy="243.49" stroke="#0e3e9f" stroke-opacity="0.5" stroke-width="2"></circle><circle r="173.44" cx="1064.51" cy="66.76" stroke="#0e3e9f" stroke-opacity="0.5" stroke-width="2"></circle><circle r="81.985" cx="47.08" cy="495.92" stroke="#0e3e9f" stroke-opacity="0.5" stroke-width="2"></circle><circle r="47.615" cx="191.33" cy="107.98" stroke="#0e3e9f" stroke-opacity="0.5" stroke-width="2"></circle><circle r="51.42" cx="157.98" cy="13.23" stroke="#0e3e9f" stroke-opacity="0.5" stroke-width="2"></circle><circle r="145.94" cx="328.37" cy="79.52" stroke="#0e3e9f" stroke-opacity="0.5" stroke-width="2"></circle><circle r="134.535" cx="940.62" cy="284.64" stroke="#0e3e9f" stroke-opacity="0.5" stroke-width="2"></circle></g><defs><clipPath id="SvgjsClipPath1051"><rect width="1440" height="560" x="0" y="0"></rect></clipPath></defs></svg>